# xmcd CD database file
#
# Track frame offsets:
#	150
#	26700
#	53700
#	85575
#	109635
#	139440
#	175665
#	199481
#
# Disc length: 3007 seconds
#
# Revision: 0
# Processed by: cddbd v1.5.2PL0 Copyright (c) Steve Scherf et al.
# Submitted via: CDex 1.70beta2
#
DISCID=690bbd08
DTITLE=New Cool Collective - Trippin - CD1
DYEAR=1900
DGENRE=Jazz
TTITLE0=Perry
TTITLE1=Son Of Chacha
TTITLE2=Ms Wilson
TTITLE3=Propeller
TTITLE4=Bambole
TTITLE5=Black Label 
TTITLE6=Conga Yeye 
TTITLE7=Jam (Ghosttrack) 
EXTD=
EXTT0=
EXTT1=
EXTT2=
EXTT3=
EXTT4=
EXTT5=
EXTT6=
EXTT7=
PLAYORDER=
